<svg xmlns="http://www.w3.org/2000/svg" width="500" height="500" fill="none" viewBox="0 0 500 500">
  <path fill="#4b32c3" fill-rule="evenodd" d="M379.277 49.005 489.142 240.07h-.002c3.994 6.908 3.994 15.009 0 21.915l-109.865 189.81c-3.989 6.91-11.362 10.336-19.343 10.336h-219.73c-7.98 0-15.356-3.532-19.346-10.44L10.993 262.19c-3.99-6.91-3.99-15.631 0-22.54L120.856 49.005C124.846 42.097 132.222 37 140.202 37h219.732c7.981 0 15.352 5.097 19.343 12.005m14.764 289.758c2.436-1.407 4.126-4.006 4.126-6.814v-33.548l12.125-8.787a20.002 20.002 0 0 0 2.601-30.138l-.42-.432.486-.091a20 20 0 0 0 15.295-25.935l-10.212-30.885a20 20 0 0 0-19.875-13.702v-17.909c0-2.811-1.713-5.407-4.151-6.813l-60.742-35.005a20 20 0 0 0-11.509-17.119l-30.387-14.198a19.93 19.93 0 0 0-14.235-1.03l-23.186-13.361a7.95 7.95 0 0 0-7.914 0l-32.467 18.726-9.276-4.334c-9.924-4.637-21.732-.428-26.485 9.441l-10.351 21.489-61.357 35.391c-2.436 1.406-4.116 4.002-4.116 6.813v93.731L73.204 324.02a20 20 0 0 0 9.61 26.825l30.636 14.197c9.217 4.272 20.034.93 25.322-7.468l107.409 61.9a7.96 7.96 0 0 0 7.916 0z" clip-rule="evenodd"/>
  <path fill="#8080f2" d="M169.644 341.456a4 4 0 0 0 1.922 5.365l30.636 14.197a4 4 0 0 0 5.287-1.897l4.915-10.23q.074-.128.139-.262l104.361-217.192a4 4 0 0 0-1.912-5.356l-30.387-14.198a4 4 0 0 0-5.297 1.889zM87.62 330.963a4 4 0 0 0 1.921 5.365l30.636 14.197a4 4 0 0 0 5.287-1.896l104.362-217.192a4 4 0 0 0-1.912-5.356l-30.387-14.198a4 4 0 0 0-5.297 1.889zm222.193-126.186 27.424 12.612-4.41-30.066a4.002 4.002 0 0 1 3.958-4.581h33.625a4 4 0 0 1 3.962 4.551l-4.214 30.295 27.192-12.796a4 4 0 0 1 5.501 2.364l10.212 30.885a4.002 4.002 0 0 1-3.059 5.187l-29.787 5.597 21.206 21.806a4 4 0 0 1-.521 6.027l-27.148 19.677a4 4 0 0 1-5.871-1.345l-14.322-26.654-13.712 26.83a4.002 4.002 0 0 1-5.91 1.418l-27.148-19.676a4 4 0 0 1-.572-5.974l20.895-22.302-29.409-5.401a4.002 4.002 0 0 1-3.093-5.134l9.714-30.886a4.004 4.004 0 0 1 5.487-2.434"/>
</svg>
